<mxfile host="65bd71144e">
    <diagram name="第 1 页" id="EOuV5ERvqpZUSFJWVVJ6">
        <mxGraphModel dx="1126" dy="688" grid="1" gridSize="10" guides="1" tooltips="1" connect="1" arrows="1" fold="1" page="1" pageScale="1" pageWidth="3300" pageHeight="4681" math="0" shadow="0">
            <root>
                <mxCell id="0"/>
                <mxCell id="1" parent="0"/>
                <mxCell id="11" value=":老師" style="shape=umlActor;verticalLabelPosition=bottom;verticalAlign=top;html=1;outlineConnect=0;" parent="1" vertex="1">
                    <mxGeometry x="60" y="380" width="30" height="60" as="geometry"/>
                </mxCell>
                <mxCell id="15" value="&lt;u&gt;查看UI&lt;/u&gt;" style="html=1;" parent="1" vertex="1">
                    <mxGeometry x="330" y="380" width="105" height="50" as="geometry"/>
                </mxCell>
                <mxCell id="17" value="&lt;u&gt;載入資料UI&lt;/u&gt;" style="html=1;" parent="1" vertex="1">
                    <mxGeometry x="180" y="610" width="110" height="50" as="geometry"/>
                </mxCell>
                <mxCell id="18" value="&lt;u&gt;確認資料UI&lt;/u&gt;" style="html=1;" parent="1" vertex="1">
                    <mxGeometry x="550" y="200" width="120" height="50" as="geometry"/>
                </mxCell>
                <mxCell id="21" value="&lt;u&gt;:上傳資料&lt;/u&gt;" style="ellipse;shape=umlControl;whiteSpace=wrap;html=1;" parent="1" vertex="1">
                    <mxGeometry x="410" y="585" width="70" height="80" as="geometry"/>
                </mxCell>
                <mxCell id="22" value="&lt;u&gt;:顯示&lt;/u&gt;" style="ellipse;shape=umlControl;whiteSpace=wrap;html=1;" parent="1" vertex="1">
                    <mxGeometry x="660" y="365" width="70" height="80" as="geometry"/>
                </mxCell>
                <mxCell id="29" value="" style="endArrow=none;startArrow=none;endFill=0;startFill=0;endSize=8;html=1;verticalAlign=bottom;labelBackgroundColor=none;strokeWidth=3;rounded=0;exitX=1;exitY=0.3333333333333333;exitDx=0;exitDy=0;exitPerimeter=0;entryX=0;entryY=0.5;entryDx=0;entryDy=0;" parent="1" source="11" target="15" edge="1">
                    <mxGeometry width="160" relative="1" as="geometry">
                        <mxPoint x="140" y="500" as="sourcePoint"/>
                        <mxPoint x="350" y="520" as="targetPoint"/>
                    </mxGeometry>
                </mxCell>
                <mxCell id="62" value="&lt;u&gt;:老師資料庫&lt;/u&gt;" style="ellipse;shape=umlEntity;whiteSpace=wrap;html=1;" parent="1" vertex="1">
                    <mxGeometry x="870" y="600" width="80" height="80" as="geometry"/>
                </mxCell>
                <mxCell id="79" value="" style="html=1;verticalAlign=bottom;labelBackgroundColor=none;endArrow=block;endFill=1;rounded=0;" parent="1" edge="1">
                    <mxGeometry width="160" relative="1" as="geometry">
                        <mxPoint x="740" y="420" as="sourcePoint"/>
                        <mxPoint x="860" y="610" as="targetPoint"/>
                    </mxGeometry>
                </mxCell>
                <mxCell id="80" value="" style="endArrow=block;startArrow=none;endFill=0;startFill=0;endSize=8;html=1;verticalAlign=bottom;dashed=1;labelBackgroundColor=none;rounded=0;" parent="1" edge="1">
                    <mxGeometry width="160" relative="1" as="geometry">
                        <mxPoint x="820" y="230" as="sourcePoint"/>
                        <mxPoint x="690" y="230" as="targetPoint"/>
                    </mxGeometry>
                </mxCell>
                <mxCell id="136" value="&lt;u&gt;ViewModel&lt;/u&gt;" style="html=1;" vertex="1" parent="1">
                    <mxGeometry x="840" y="190" width="110" height="50" as="geometry"/>
                </mxCell>
                <mxCell id="138" value="&lt;u&gt;:備課資料庫&lt;/u&gt;" style="ellipse;shape=umlEntity;whiteSpace=wrap;html=1;" vertex="1" parent="1">
                    <mxGeometry x="970" y="370" width="80" height="80" as="geometry"/>
                </mxCell>
                <mxCell id="142" value="" style="endArrow=none;startArrow=none;endFill=0;startFill=0;endSize=8;html=1;verticalAlign=bottom;labelBackgroundColor=none;strokeWidth=3;rounded=0;exitX=1;exitY=0.5;exitDx=0;exitDy=0;entryX=-0.014;entryY=0.604;entryDx=0;entryDy=0;entryPerimeter=0;" edge="1" parent="1" source="15" target="22">
                    <mxGeometry width="160" relative="1" as="geometry">
                        <mxPoint x="150" y="510" as="sourcePoint"/>
                        <mxPoint x="360" y="530" as="targetPoint"/>
                    </mxGeometry>
                </mxCell>
                <mxCell id="143" value="" style="endArrow=none;startArrow=none;endFill=0;startFill=0;endSize=8;html=1;verticalAlign=bottom;labelBackgroundColor=none;strokeWidth=3;rounded=0;exitX=0.986;exitY=0.654;exitDx=0;exitDy=0;exitPerimeter=0;entryX=0;entryY=0.5;entryDx=0;entryDy=0;" edge="1" parent="1" source="22" target="62">
                    <mxGeometry width="160" relative="1" as="geometry">
                        <mxPoint x="160" y="520" as="sourcePoint"/>
                        <mxPoint x="370" y="540" as="targetPoint"/>
                    </mxGeometry>
                </mxCell>
                <mxCell id="144" value="" style="endArrow=none;startArrow=none;endFill=0;startFill=0;endSize=8;html=1;verticalAlign=bottom;labelBackgroundColor=none;strokeWidth=3;rounded=0;exitX=1.043;exitY=0.513;exitDx=0;exitDy=0;exitPerimeter=0;" edge="1" parent="1" source="22" target="138">
                    <mxGeometry width="160" relative="1" as="geometry">
                        <mxPoint x="170" y="530" as="sourcePoint"/>
                        <mxPoint x="380" y="550" as="targetPoint"/>
                    </mxGeometry>
                </mxCell>
                <mxCell id="145" value="" style="endArrow=none;startArrow=none;endFill=0;startFill=0;endSize=8;html=1;verticalAlign=bottom;labelBackgroundColor=none;strokeWidth=3;rounded=0;exitX=0.996;exitY=0.613;exitDx=0;exitDy=0;exitPerimeter=0;" edge="1" parent="1" source="62" target="138">
                    <mxGeometry width="160" relative="1" as="geometry">
                        <mxPoint x="180" y="540" as="sourcePoint"/>
                        <mxPoint x="390" y="560" as="targetPoint"/>
                    </mxGeometry>
                </mxCell>
                <mxCell id="146" value="" style="endArrow=none;startArrow=none;endFill=0;startFill=0;endSize=8;html=1;verticalAlign=bottom;labelBackgroundColor=none;strokeWidth=3;rounded=0;entryX=0.379;entryY=-0.02;entryDx=0;entryDy=0;entryPerimeter=0;" edge="1" parent="1" target="17">
                    <mxGeometry width="160" relative="1" as="geometry">
                        <mxPoint x="90" y="400" as="sourcePoint"/>
                        <mxPoint x="400" y="570" as="targetPoint"/>
                    </mxGeometry>
                </mxCell>
                <mxCell id="147" value="" style="endArrow=none;startArrow=none;endFill=0;startFill=0;endSize=8;html=1;verticalAlign=bottom;labelBackgroundColor=none;strokeWidth=3;rounded=0;entryX=0.609;entryY=-0.033;entryDx=0;entryDy=0;entryPerimeter=0;exitX=0;exitY=0.75;exitDx=0;exitDy=0;" edge="1" parent="1" source="15" target="17">
                    <mxGeometry width="160" relative="1" as="geometry">
                        <mxPoint x="200" y="560" as="sourcePoint"/>
                        <mxPoint x="410" y="580" as="targetPoint"/>
                    </mxGeometry>
                </mxCell>
                <mxCell id="148" value="" style="endArrow=none;startArrow=none;endFill=0;startFill=0;endSize=8;html=1;verticalAlign=bottom;labelBackgroundColor=none;strokeWidth=3;rounded=0;exitX=0.5;exitY=1;exitDx=0;exitDy=0;" edge="1" parent="1" source="15" target="21">
                    <mxGeometry width="160" relative="1" as="geometry">
                        <mxPoint x="210" y="570" as="sourcePoint"/>
                        <mxPoint x="420" y="590" as="targetPoint"/>
                    </mxGeometry>
                </mxCell>
                <mxCell id="149" value="" style="endArrow=none;startArrow=none;endFill=0;startFill=0;endSize=8;html=1;verticalAlign=bottom;labelBackgroundColor=none;strokeWidth=3;rounded=0;entryX=-0.019;entryY=0.417;entryDx=0;entryDy=0;entryPerimeter=0;exitX=1.024;exitY=0.621;exitDx=0;exitDy=0;exitPerimeter=0;" edge="1" parent="1" source="21" target="178">
                    <mxGeometry width="160" relative="1" as="geometry">
                        <mxPoint x="220" y="580" as="sourcePoint"/>
                        <mxPoint x="430" y="600" as="targetPoint"/>
                    </mxGeometry>
                </mxCell>
                <mxCell id="150" value="" style="endArrow=none;startArrow=none;endFill=0;startFill=0;endSize=8;html=1;verticalAlign=bottom;labelBackgroundColor=none;strokeWidth=3;rounded=0;entryX=0.241;entryY=0.006;entryDx=0;entryDy=0;entryPerimeter=0;exitX=0.462;exitY=1.046;exitDx=0;exitDy=0;exitPerimeter=0;" edge="1" parent="1" source="22" target="178">
                    <mxGeometry width="160" relative="1" as="geometry">
                        <mxPoint x="230" y="590" as="sourcePoint"/>
                        <mxPoint x="440" y="610" as="targetPoint"/>
                    </mxGeometry>
                </mxCell>
                <mxCell id="151" value="" style="endArrow=none;startArrow=none;endFill=0;startFill=0;endSize=8;html=1;verticalAlign=bottom;labelBackgroundColor=none;strokeWidth=3;rounded=0;exitX=0.414;exitY=1.047;exitDx=0;exitDy=0;exitPerimeter=0;" edge="1" parent="1" source="18" target="22">
                    <mxGeometry width="160" relative="1" as="geometry">
                        <mxPoint x="240" y="600" as="sourcePoint"/>
                        <mxPoint x="450" y="620" as="targetPoint"/>
                    </mxGeometry>
                </mxCell>
                <mxCell id="152" value="" style="endArrow=none;startArrow=none;endFill=0;startFill=0;endSize=8;html=1;verticalAlign=bottom;labelBackgroundColor=none;strokeWidth=3;rounded=0;exitX=1;exitY=0.5;exitDx=0;exitDy=0;" edge="1" parent="1" source="18" target="138">
                    <mxGeometry width="160" relative="1" as="geometry">
                        <mxPoint x="250" y="610" as="sourcePoint"/>
                        <mxPoint x="460" y="630" as="targetPoint"/>
                    </mxGeometry>
                </mxCell>
                <mxCell id="153" value="" style="html=1;verticalAlign=bottom;labelBackgroundColor=none;endArrow=block;endFill=1;rounded=0;" edge="1" parent="1">
                    <mxGeometry width="160" relative="1" as="geometry">
                        <mxPoint x="970" y="640" as="sourcePoint"/>
                        <mxPoint x="1010" y="470" as="targetPoint"/>
                    </mxGeometry>
                </mxCell>
                <mxCell id="154" value="" style="html=1;verticalAlign=bottom;labelBackgroundColor=none;endArrow=block;endFill=1;rounded=0;" edge="1" parent="1">
                    <mxGeometry width="160" relative="1" as="geometry">
                        <mxPoint x="110" y="450" as="sourcePoint"/>
                        <mxPoint x="200" y="600" as="targetPoint"/>
                    </mxGeometry>
                </mxCell>
                <mxCell id="155" value="" style="html=1;verticalAlign=bottom;labelBackgroundColor=none;endArrow=block;endFill=1;rounded=0;" edge="1" parent="1">
                    <mxGeometry width="160" relative="1" as="geometry">
                        <mxPoint x="400" y="440" as="sourcePoint"/>
                        <mxPoint x="450" y="580" as="targetPoint"/>
                    </mxGeometry>
                </mxCell>
                <mxCell id="156" value="" style="html=1;verticalAlign=bottom;labelBackgroundColor=none;endArrow=block;endFill=1;rounded=0;" edge="1" parent="1">
                    <mxGeometry width="160" relative="1" as="geometry">
                        <mxPoint x="125" y="420" as="sourcePoint"/>
                        <mxPoint x="305" y="420" as="targetPoint"/>
                    </mxGeometry>
                </mxCell>
                <mxCell id="157" value="" style="html=1;verticalAlign=bottom;labelBackgroundColor=none;endArrow=block;endFill=1;rounded=0;" edge="1" parent="1">
                    <mxGeometry width="160" relative="1" as="geometry">
                        <mxPoint x="490" y="650" as="sourcePoint"/>
                        <mxPoint x="660" y="650" as="targetPoint"/>
                    </mxGeometry>
                </mxCell>
                <mxCell id="158" value="" style="html=1;verticalAlign=bottom;labelBackgroundColor=none;endArrow=block;endFill=1;rounded=0;" edge="1" parent="1">
                    <mxGeometry width="160" relative="1" as="geometry">
                        <mxPoint x="450" y="390" as="sourcePoint"/>
                        <mxPoint x="650" y="400" as="targetPoint"/>
                    </mxGeometry>
                </mxCell>
                <mxCell id="159" value="" style="html=1;verticalAlign=bottom;labelBackgroundColor=none;endArrow=block;endFill=1;rounded=0;" edge="1" parent="1">
                    <mxGeometry width="160" relative="1" as="geometry">
                        <mxPoint x="530" y="208.66668701171875" as="sourcePoint"/>
                        <mxPoint x="290" y="208" as="targetPoint"/>
                    </mxGeometry>
                </mxCell>
                <mxCell id="160" value="" style="html=1;verticalAlign=bottom;labelBackgroundColor=none;endArrow=block;endFill=1;rounded=0;" edge="1" parent="1">
                    <mxGeometry width="160" relative="1" as="geometry">
                        <mxPoint x="180" y="380" as="sourcePoint"/>
                        <mxPoint x="540" y="246.66668701171875" as="targetPoint"/>
                    </mxGeometry>
                </mxCell>
                <mxCell id="161" value="" style="html=1;verticalAlign=bottom;labelBackgroundColor=none;endArrow=block;endFill=1;rounded=0;" edge="1" parent="1">
                    <mxGeometry width="160" relative="1" as="geometry">
                        <mxPoint x="450" y="440" as="sourcePoint"/>
                        <mxPoint x="660" y="610" as="targetPoint"/>
                    </mxGeometry>
                </mxCell>
                <mxCell id="162" value="" style="html=1;verticalAlign=bottom;labelBackgroundColor=none;endArrow=block;endFill=1;rounded=0;" edge="1" parent="1">
                    <mxGeometry width="160" relative="1" as="geometry">
                        <mxPoint x="690" y="250" as="sourcePoint"/>
                        <mxPoint x="950" y="387.33331298828125" as="targetPoint"/>
                    </mxGeometry>
                </mxCell>
                <mxCell id="165" value="" style="endArrow=block;startArrow=none;endFill=0;startFill=0;endSize=8;html=1;verticalAlign=bottom;dashed=1;labelBackgroundColor=none;rounded=0;" edge="1" parent="1">
                    <mxGeometry width="160" relative="1" as="geometry">
                        <mxPoint x="300" y="240" as="sourcePoint"/>
                        <mxPoint x="490" y="240" as="targetPoint"/>
                    </mxGeometry>
                </mxCell>
                <mxCell id="170" value="" style="endArrow=block;startArrow=none;endFill=0;startFill=0;endSize=8;html=1;verticalAlign=bottom;dashed=1;labelBackgroundColor=none;rounded=0;" edge="1" parent="1">
                    <mxGeometry width="160" relative="1" as="geometry">
                        <mxPoint x="650" y="430" as="sourcePoint"/>
                        <mxPoint x="480" y="420" as="targetPoint"/>
                    </mxGeometry>
                </mxCell>
                <mxCell id="171" value="" style="endArrow=block;startArrow=none;endFill=0;startFill=0;endSize=8;html=1;verticalAlign=bottom;dashed=1;labelBackgroundColor=none;rounded=0;" edge="1" parent="1">
                    <mxGeometry width="160" relative="1" as="geometry">
                        <mxPoint x="950" y="400" as="sourcePoint"/>
                        <mxPoint x="740" y="400" as="targetPoint"/>
                    </mxGeometry>
                </mxCell>
                <mxCell id="172" value="" style="endArrow=block;startArrow=none;endFill=0;startFill=0;endSize=8;html=1;verticalAlign=bottom;dashed=1;labelBackgroundColor=none;rounded=0;" edge="1" parent="1">
                    <mxGeometry width="160" relative="1" as="geometry">
                        <mxPoint x="720" y="600" as="sourcePoint"/>
                        <mxPoint x="710" y="460" as="targetPoint"/>
                    </mxGeometry>
                </mxCell>
                <mxCell id="173" value="" style="endArrow=block;startArrow=none;endFill=0;startFill=0;endSize=8;html=1;verticalAlign=bottom;dashed=1;labelBackgroundColor=none;rounded=0;" edge="1" parent="1">
                    <mxGeometry width="160" relative="1" as="geometry">
                        <mxPoint x="690" y="358.66668701171875" as="sourcePoint"/>
                        <mxPoint x="620" y="260" as="targetPoint"/>
                    </mxGeometry>
                </mxCell>
                <mxCell id="174" value="" style="endArrow=block;startArrow=none;endFill=0;startFill=0;endSize=8;html=1;verticalAlign=bottom;dashed=1;labelBackgroundColor=none;rounded=0;" edge="1" parent="1">
                    <mxGeometry width="160" relative="1" as="geometry">
                        <mxPoint x="270" y="600" as="sourcePoint"/>
                        <mxPoint x="330" y="450" as="targetPoint"/>
                    </mxGeometry>
                </mxCell>
                <mxCell id="178" value="ref" style="shape=umlFrame;whiteSpace=wrap;html=1;pointerEvents=0;" vertex="1" parent="1">
                    <mxGeometry x="680" y="610" width="90" height="60" as="geometry"/>
                </mxCell>
                <mxCell id="179" value="&lt;span style=&quot;color: rgb(0, 0, 0); font-family: Helvetica; font-size: 12px; font-style: normal; font-variant-ligatures: normal; font-variant-caps: normal; font-weight: 400; letter-spacing: normal; orphans: 2; text-align: center; text-indent: 0px; text-transform: none; widows: 2; word-spacing: 0px; -webkit-text-stroke-width: 0px; background-color: rgb(251, 251, 251); text-decoration-thickness: initial; text-decoration-style: initial; text-decoration-color: initial; float: none; display: inline !important;&quot;&gt;建議資料&lt;/span&gt;" style="text;whiteSpace=wrap;html=1;" vertex="1" parent="1">
                    <mxGeometry x="700" y="640" width="80" height="40" as="geometry"/>
                </mxCell>
                <mxCell id="182" value="" style="endArrow=none;startArrow=none;endFill=0;startFill=0;endSize=8;html=1;verticalAlign=bottom;labelBackgroundColor=none;strokeWidth=3;rounded=0;entryX=-0.004;entryY=0.006;entryDx=0;entryDy=0;entryPerimeter=0;exitX=1;exitY=0.5;exitDx=0;exitDy=0;" edge="1" parent="1" source="15" target="178">
                    <mxGeometry width="160" relative="1" as="geometry">
                        <mxPoint x="429.9999999999999" y="350.00000000000006" as="sourcePoint"/>
                        <mxPoint x="669.35" y="626.68" as="targetPoint"/>
                    </mxGeometry>
                </mxCell>
                <mxCell id="189" value="" style="endArrow=none;startArrow=none;endFill=0;startFill=0;endSize=8;html=1;verticalAlign=bottom;labelBackgroundColor=none;strokeWidth=3;rounded=0;entryX=0.997;entryY=0.413;entryDx=0;entryDy=0;exitX=0;exitY=0.5;exitDx=0;exitDy=0;entryPerimeter=0;" edge="1" parent="1" source="18" target="193">
                    <mxGeometry width="160" relative="1" as="geometry">
                        <mxPoint x="160" y="470" as="sourcePoint"/>
                        <mxPoint x="320" y="585" as="targetPoint"/>
                    </mxGeometry>
                </mxCell>
                <mxCell id="191" value="" style="endArrow=none;startArrow=none;endFill=0;startFill=0;endSize=8;html=1;verticalAlign=bottom;labelBackgroundColor=none;strokeWidth=3;rounded=0;entryX=0;entryY=0.5;entryDx=0;entryDy=0;exitX=1;exitY=0.25;exitDx=0;exitDy=0;" edge="1" parent="1" source="18" target="136">
                    <mxGeometry width="160" relative="1" as="geometry">
                        <mxPoint x="180" y="490" as="sourcePoint"/>
                        <mxPoint x="340" y="605" as="targetPoint"/>
                    </mxGeometry>
                </mxCell>
                <mxCell id="192" value="" style="endArrow=none;startArrow=none;endFill=0;startFill=0;endSize=8;html=1;verticalAlign=bottom;labelBackgroundColor=none;strokeWidth=3;rounded=0;entryX=0;entryY=0.5;entryDx=0;entryDy=0;" edge="1" parent="1" target="18">
                    <mxGeometry width="160" relative="1" as="geometry">
                        <mxPoint x="90" y="400" as="sourcePoint"/>
                        <mxPoint x="350" y="615" as="targetPoint"/>
                    </mxGeometry>
                </mxCell>
                <mxCell id="193" value="ref" style="shape=umlFrame;whiteSpace=wrap;html=1;pointerEvents=0;" vertex="1" parent="1">
                    <mxGeometry x="150" y="190" width="130" height="80" as="geometry"/>
                </mxCell>
                <mxCell id="194" value="&lt;span style=&quot;color: rgb(0, 0, 0); font-family: Helvetica; font-size: 12px; font-style: normal; font-variant-ligatures: normal; font-variant-caps: normal; font-weight: 400; letter-spacing: normal; orphans: 2; text-align: center; text-indent: 0px; text-transform: none; widows: 2; word-spacing: 0px; -webkit-text-stroke-width: 0px; white-space: normal; background-color: rgb(251, 251, 251); text-decoration-thickness: initial; text-decoration-style: initial; text-decoration-color: initial; display: inline !important; float: none;&quot;&gt;編輯建議備課資料&lt;/span&gt;" style="text;whiteSpace=wrap;html=1;" vertex="1" parent="1">
                    <mxGeometry x="160" y="230" width="130" height="40" as="geometry"/>
                </mxCell>
                <mxCell id="196" value="" style="html=1;verticalAlign=bottom;labelBackgroundColor=none;endArrow=block;endFill=1;rounded=0;" edge="1" parent="1">
                    <mxGeometry width="160" relative="1" as="geometry">
                        <mxPoint x="680" y="200" as="sourcePoint"/>
                        <mxPoint x="820" y="200" as="targetPoint"/>
                    </mxGeometry>
                </mxCell>
                <mxCell id="197" value="&lt;span style=&quot;color: rgb(0, 0, 0); font-family: Helvetica; font-size: 11px; font-style: normal; font-variant-ligatures: normal; font-variant-caps: normal; font-weight: 400; letter-spacing: normal; orphans: 2; text-align: center; text-indent: 0px; text-transform: none; widows: 2; word-spacing: 0px; -webkit-text-stroke-width: 0px; background-color: rgb(255, 255, 255); text-decoration-thickness: initial; text-decoration-style: initial; text-decoration-color: initial; float: none; display: inline !important;&quot;&gt;1:查看備課資料()&lt;br&gt;&lt;span style=&quot;&quot;&gt;7:點擊建立備課資料()&lt;br&gt;&lt;/span&gt;&lt;span style=&quot;&quot;&gt;17:提出修改提示(提示)&lt;/span&gt;&lt;br&gt;&lt;/span&gt;" style="text;whiteSpace=wrap;html=1;" vertex="1" parent="1">
                    <mxGeometry x="170" y="420" width="120" height="40" as="geometry"/>
                </mxCell>
                <mxCell id="199" value="&lt;span style=&quot;color: rgb(0, 0, 0); font-family: Helvetica; font-size: 11px; font-style: normal; font-variant-ligatures: normal; font-variant-caps: normal; font-weight: 400; letter-spacing: normal; orphans: 2; text-align: center; text-indent: 0px; text-transform: none; widows: 2; word-spacing: 0px; -webkit-text-stroke-width: 0px; background-color: rgb(255, 255, 255); text-decoration-thickness: initial; text-decoration-style: initial; text-decoration-color: initial; float: none; display: inline !important;&quot;&gt;2:傳送顯示資料需求()&lt;/span&gt;" style="text;whiteSpace=wrap;html=1;" vertex="1" parent="1">
                    <mxGeometry x="490" y="365" width="140" height="40" as="geometry"/>
                </mxCell>
                <mxCell id="200" value="&lt;span style=&quot;color: rgb(0, 0, 0); font-family: Helvetica; font-size: 11px; font-style: normal; font-variant-ligatures: normal; font-variant-caps: normal; font-weight: 400; letter-spacing: normal; orphans: 2; text-align: center; text-indent: 0px; text-transform: none; widows: 2; word-spacing: 0px; -webkit-text-stroke-width: 0px; background-color: rgb(255, 255, 255); text-decoration-thickness: initial; text-decoration-style: initial; text-decoration-color: initial; float: none; display: inline !important;&quot;&gt;3:搜尋老師個人擁有資料()&lt;/span&gt;" style="text;whiteSpace=wrap;html=1;rotation=60;" vertex="1" parent="1">
                    <mxGeometry x="750" y="510" width="160" height="40" as="geometry"/>
                </mxCell>
                <mxCell id="201" value="&lt;span style=&quot;color: rgb(0, 0, 0); font-family: Helvetica; font-size: 11px; font-style: normal; font-variant-ligatures: normal; font-variant-caps: normal; font-weight: 400; letter-spacing: normal; orphans: 2; text-align: center; text-indent: 0px; text-transform: none; widows: 2; word-spacing: 0px; -webkit-text-stroke-width: 0px; background-color: rgb(255, 255, 255); text-decoration-thickness: initial; text-decoration-style: initial; text-decoration-color: initial; float: none; display: inline !important;&quot;&gt;4:讀取目前所有備課資料()&lt;/span&gt;" style="text;whiteSpace=wrap;html=1;rotation=-75;" vertex="1" parent="1">
                    <mxGeometry x="940" y="545" width="160" height="40" as="geometry"/>
                </mxCell>
                <mxCell id="202" value="&lt;span style=&quot;color: rgb(0, 0, 0); font-family: Helvetica; font-size: 11px; font-style: normal; font-variant-ligatures: normal; font-variant-caps: normal; font-weight: 400; letter-spacing: normal; orphans: 2; text-align: center; text-indent: 0px; text-transform: none; widows: 2; word-spacing: 0px; -webkit-text-stroke-width: 0px; background-color: rgb(255, 255, 255); text-decoration-thickness: initial; text-decoration-style: initial; text-decoration-color: initial; float: none; display: inline !important;&quot;&gt;5:載入目前所有備課資料()&lt;br&gt;&lt;span style=&quot;&quot;&gt;15:傳送推薦前的資料&lt;br&gt;&lt;/span&gt;&lt;span style=&quot;&quot;&gt;28:顯示備課檔案()&lt;/span&gt;&lt;br&gt;&lt;/span&gt;" style="text;whiteSpace=wrap;html=1;" vertex="1" parent="1">
                    <mxGeometry x="810" y="410" width="160" height="40" as="geometry"/>
                </mxCell>
                <mxCell id="203" value="&lt;span style=&quot;color: rgb(0, 0, 0); font-family: Helvetica; font-size: 11px; font-style: normal; font-variant-ligatures: normal; font-variant-caps: normal; font-weight: 400; letter-spacing: normal; orphans: 2; text-align: center; text-indent: 0px; text-transform: none; widows: 2; word-spacing: 0px; -webkit-text-stroke-width: 0px; background-color: rgb(255, 255, 255); text-decoration-thickness: initial; text-decoration-style: initial; text-decoration-color: initial; float: none; display: inline !important;&quot;&gt;6:顯示目前所有備課資料()&lt;br&gt;&lt;span style=&quot;&quot;&gt;16:顯示推薦備課資料()&lt;br&gt;&lt;/span&gt;&lt;span style=&quot;&quot;&gt;29:顯示備課檔案()&lt;/span&gt;&lt;br&gt;&lt;/span&gt;" style="text;whiteSpace=wrap;html=1;" vertex="1" parent="1">
                    <mxGeometry x="520" y="430" width="160" height="40" as="geometry"/>
                </mxCell>
                <mxCell id="204" value="&lt;span style=&quot;color: rgb(0, 0, 0); font-family: Helvetica; font-size: 11px; font-style: normal; font-variant-ligatures: normal; font-variant-caps: normal; font-weight: 400; letter-spacing: normal; orphans: 2; text-align: center; text-indent: 0px; text-transform: none; widows: 2; word-spacing: 0px; -webkit-text-stroke-width: 0px; background-color: rgb(255, 255, 255); text-decoration-thickness: initial; text-decoration-style: initial; text-decoration-color: initial; float: none; display: inline !important;&quot;&gt;8:上傳附檔()&lt;/span&gt;" style="text;whiteSpace=wrap;html=1;" vertex="1" parent="1">
                    <mxGeometry x="80" y="530" width="90" height="30" as="geometry"/>
                </mxCell>
                <mxCell id="205" value="&lt;span style=&quot;color: rgb(0, 0, 0); font-family: Helvetica; font-size: 11px; font-style: normal; font-variant-ligatures: normal; font-variant-caps: normal; font-weight: 400; letter-spacing: normal; orphans: 2; text-align: center; text-indent: 0px; text-transform: none; widows: 2; word-spacing: 0px; -webkit-text-stroke-width: 0px; background-color: rgb(255, 255, 255); text-decoration-thickness: initial; text-decoration-style: initial; text-decoration-color: initial; float: none; display: inline !important;&quot;&gt;9:載入附檔()&lt;/span&gt;" style="text;whiteSpace=wrap;html=1;" vertex="1" parent="1">
                    <mxGeometry x="300" y="540" width="90" height="40" as="geometry"/>
                </mxCell>
                <mxCell id="206" value="&lt;span style=&quot;color: rgb(0, 0, 0); font-family: Helvetica; font-size: 11px; font-style: normal; font-variant-ligatures: normal; font-variant-caps: normal; font-weight: 400; letter-spacing: normal; orphans: 2; text-align: center; text-indent: 0px; text-transform: none; widows: 2; word-spacing: 0px; -webkit-text-stroke-width: 0px; background-color: rgb(255, 255, 255); text-decoration-thickness: initial; text-decoration-style: initial; text-decoration-color: initial; float: none; display: inline !important;&quot;&gt;10:傳送備課資料()&lt;/span&gt;" style="text;whiteSpace=wrap;html=1;rotation=60;" vertex="1" parent="1">
                    <mxGeometry x="390" y="505" width="120" height="40" as="geometry"/>
                </mxCell>
                <mxCell id="207" value="&lt;span style=&quot;color: rgb(0, 0, 0); font-family: Helvetica; font-size: 11px; font-style: normal; font-variant-ligatures: normal; font-variant-caps: normal; font-weight: 400; letter-spacing: normal; orphans: 2; text-align: center; text-indent: 0px; text-transform: none; widows: 2; word-spacing: 0px; -webkit-text-stroke-width: 0px; background-color: rgb(255, 255, 255); text-decoration-thickness: initial; text-decoration-style: initial; text-decoration-color: initial; float: none; display: inline !important;&quot;&gt;11:輸入備課資料()&lt;/span&gt;" style="text;whiteSpace=wrap;html=1;" vertex="1" parent="1">
                    <mxGeometry x="520" y="650" width="120" height="40" as="geometry"/>
                </mxCell>
                <mxCell id="208" value="&lt;span style=&quot;color: rgb(0, 0, 0); font-family: Helvetica; font-size: 11px; font-style: normal; font-variant-ligatures: normal; font-variant-caps: normal; font-weight: 400; letter-spacing: normal; orphans: 2; text-align: center; text-indent: 0px; text-transform: none; widows: 2; word-spacing: 0px; -webkit-text-stroke-width: 0px; background-color: rgb(255, 255, 255); text-decoration-thickness: initial; text-decoration-style: initial; text-decoration-color: initial; float: none; display: inline !important;&quot;&gt;12:回傳推薦備課資料()&lt;br&gt;&lt;span style=&quot;&quot;&gt;19:回傳推薦備課資料()&lt;/span&gt;&lt;br&gt;&lt;/span&gt;" style="text;whiteSpace=wrap;html=1;rotation=90;" vertex="1" parent="1">
                    <mxGeometry x="660" y="530" width="140" height="40" as="geometry"/>
                </mxCell>
                <mxCell id="209" value="&lt;span style=&quot;color: rgb(0, 0, 0); font-family: Helvetica; font-size: 11px; font-style: normal; font-variant-ligatures: normal; font-variant-caps: normal; font-weight: 400; letter-spacing: normal; orphans: 2; text-align: center; text-indent: 0px; text-transform: none; widows: 2; word-spacing: 0px; -webkit-text-stroke-width: 0px; background-color: rgb(255, 255, 255); text-decoration-thickness: initial; text-decoration-style: initial; text-decoration-color: initial; float: none; display: inline !important;&quot;&gt;13:顯示推薦備課資料()&lt;br&gt;&lt;span style=&quot;&quot;&gt;20:顯示推薦備課資料()&lt;/span&gt;&lt;br&gt;&lt;/span&gt;" style="text;whiteSpace=wrap;html=1;rotation=45;" vertex="1" parent="1">
                    <mxGeometry x="625" y="300" width="140" height="40" as="geometry"/>
                </mxCell>
                <mxCell id="210" value="&lt;span style=&quot;color: rgb(0, 0, 0); font-family: Helvetica; font-size: 11px; font-style: normal; font-variant-ligatures: normal; font-variant-caps: normal; font-weight: 400; letter-spacing: normal; orphans: 2; text-align: center; text-indent: 0px; text-transform: none; widows: 2; word-spacing: 0px; -webkit-text-stroke-width: 0px; background-color: rgb(255, 255, 255); text-decoration-thickness: initial; text-decoration-style: initial; text-decoration-color: initial; float: none; display: inline !important;&quot;&gt;14:請求推薦前資料()&lt;br&gt;&lt;span style=&quot;&quot;&gt;27:讀取最終儲存資料()&lt;/span&gt;&lt;br&gt;&lt;/span&gt;" style="text;whiteSpace=wrap;html=1;rotation=30;" vertex="1" parent="1">
                    <mxGeometry x="730" y="310" width="130" height="40" as="geometry"/>
                </mxCell>
                <mxCell id="211" value="&lt;span style=&quot;color: rgb(0, 0, 0); font-family: Helvetica; font-size: 11px; font-style: normal; font-variant-ligatures: normal; font-variant-caps: normal; font-weight: 400; letter-spacing: normal; orphans: 2; text-align: center; text-indent: 0px; text-transform: none; widows: 2; word-spacing: 0px; -webkit-text-stroke-width: 0px; background-color: rgb(255, 255, 255); text-decoration-thickness: initial; text-decoration-style: initial; text-decoration-color: initial; float: none; display: inline !important;&quot;&gt;18:傳送更改後備課資料()&lt;/span&gt;" style="text;whiteSpace=wrap;html=1;rotation=45;" vertex="1" parent="1">
                    <mxGeometry x="465" y="530" width="160" height="40" as="geometry"/>
                </mxCell>
                <mxCell id="212" value="&lt;span style=&quot;color: rgb(0, 0, 0); font-family: Helvetica; font-size: 11px; font-style: normal; font-variant-ligatures: normal; font-variant-caps: normal; font-weight: 400; letter-spacing: normal; orphans: 2; text-align: center; text-indent: 0px; text-transform: none; widows: 2; word-spacing: 0px; -webkit-text-stroke-width: 0px; background-color: rgb(255, 255, 255); text-decoration-thickness: initial; text-decoration-style: initial; text-decoration-color: initial; float: none; display: inline !important;&quot;&gt;21:點擊編輯資料()&lt;br&gt;&lt;span style=&quot;&quot;&gt;26:提出確認要求()&lt;/span&gt;&lt;br&gt;&lt;/span&gt;" style="text;whiteSpace=wrap;html=1;rotation=-20;" vertex="1" parent="1">
                    <mxGeometry x="315" y="310" width="120" height="40" as="geometry"/>
                </mxCell>
                <mxCell id="213" value="&lt;span style=&quot;color: rgb(0, 0, 0); font-family: Helvetica; font-size: 11px; font-style: normal; font-variant-ligatures: normal; font-variant-caps: normal; font-weight: 400; letter-spacing: normal; orphans: 2; text-align: center; text-indent: 0px; text-transform: none; widows: 2; word-spacing: 0px; -webkit-text-stroke-width: 0px; background-color: rgb(255, 255, 255); text-decoration-thickness: initial; text-decoration-style: initial; text-decoration-color: initial; float: none; display: inline !important;&quot;&gt;22:儲存需編輯資料()&lt;/span&gt;" style="text;whiteSpace=wrap;html=1;" vertex="1" parent="1">
                    <mxGeometry x="330" y="180" width="130" height="40" as="geometry"/>
                </mxCell>
                <mxCell id="214" value="&lt;span style=&quot;color: rgb(0, 0, 0); font-family: Helvetica; font-size: 11px; font-style: normal; font-variant-ligatures: normal; font-variant-caps: normal; font-weight: 400; letter-spacing: normal; orphans: 2; text-align: center; text-indent: 0px; text-transform: none; widows: 2; word-spacing: 0px; -webkit-text-stroke-width: 0px; background-color: rgb(255, 255, 255); text-decoration-thickness: initial; text-decoration-style: initial; text-decoration-color: initial; float: none; display: inline !important;&quot;&gt;23:回傳變更資料提示&lt;/span&gt;" style="text;whiteSpace=wrap;html=1;" vertex="1" parent="1">
                    <mxGeometry x="300" y="240" width="130" height="40" as="geometry"/>
                </mxCell>
                <mxCell id="215" value="&lt;span style=&quot;color: rgb(0, 0, 0); font-family: Helvetica; font-size: 11px; font-style: normal; font-variant-ligatures: normal; font-variant-caps: normal; font-weight: 400; letter-spacing: normal; orphans: 2; text-align: center; text-indent: 0px; text-transform: none; widows: 2; word-spacing: 0px; -webkit-text-stroke-width: 0px; background-color: rgb(255, 255, 255); text-decoration-thickness: initial; text-decoration-style: initial; text-decoration-color: initial; float: none; display: inline !important;&quot;&gt;24:請求所需資料&lt;/span&gt;" style="text;whiteSpace=wrap;html=1;" vertex="1" parent="1">
                    <mxGeometry x="690" y="170" width="110" height="40" as="geometry"/>
                </mxCell>
                <mxCell id="216" value="&lt;span style=&quot;color: rgb(0, 0, 0); font-family: Helvetica; font-size: 11px; font-style: normal; font-variant-ligatures: normal; font-variant-caps: normal; font-weight: 400; letter-spacing: normal; orphans: 2; text-align: center; text-indent: 0px; text-transform: none; widows: 2; word-spacing: 0px; -webkit-text-stroke-width: 0px; background-color: rgb(255, 255, 255); text-decoration-thickness: initial; text-decoration-style: initial; text-decoration-color: initial; float: none; display: inline !important;&quot;&gt;25:傳送資料&lt;/span&gt;" style="text;whiteSpace=wrap;html=1;" vertex="1" parent="1">
                    <mxGeometry x="730" y="230" width="90" height="40" as="geometry"/>
                </mxCell>
            </root>
        </mxGraphModel>
    </diagram>
</mxfile>